<svg xmlns="http://www.w3.org/2000/svg" xmlnsXlink="http://www.w3.org/1999/xlink" xmlnsvgjs="http://svgjs.com/svgjs" version="1.1" width="512" height="512" x="0" y="0" viewBox="0 0 491.794 491.794" style="enable-background:new 0 0 512 512" xml:space="preserve"><g><g xmlns="http://www.w3.org/2000/svg" id="XMLID_1_"><g id="XMLID_33_"><path id="XMLID_34_" d="m155.146 307.753-14.25-4.685c-1.494 4.544-3.335 9.026-5.472 13.323l13.43 6.681c2.457-4.939 4.574-10.093 6.292-15.319z" fill="#65bec2" data-original="#000000" style=""/><path id="XMLID_1155_" d="m489.395 297.836c-5.864-26.921-21.861-49.948-45.043-64.837l-61.439-39.461 3.061-3.061c6.588-6.588 10.217-15.348 10.217-24.666 0-9.317-3.628-18.077-10.217-24.665-5.099-5.099-11.498-8.425-18.449-9.668l18.611-18.611c13.6-13.601 13.6-35.73 0-49.331-13.601-13.601-35.729-13.601-49.33 0l-5.632 5.631c-1.212-6.769-4.429-13.247-9.65-18.467-6.588-6.588-15.348-10.217-24.665-10.217s-18.077 3.628-24.666 10.217l-78.825 78.847c3.456-12.503.042-26.108-9.391-35.541-7.494-7.494-17.86-11.36-28.427-10.609-10.535.749-20.214 6.009-26.573 14.437l-48.302 60.811 11.746 9.329 48.363-60.888.127-.165c3.748-4.999 9.472-8.119 15.703-8.562 6.236-.45 12.339 1.836 16.757 6.254 6.563 6.563 8.185 16.55 4.038 24.853l-43.655 87.4 1.678 3.354c.158.316 15.741 32.042 8.859 69.512l14.753 2.71c6.461-35.174-4.335-65.352-8.603-75.416l23.281-46.611 109.078-109.108c3.755-3.755 8.748-5.823 14.059-5.823s10.303 2.068 14.059 5.823c7.752 7.752 7.752 20.366 0 28.118l-90.969 90.969-4.216-2.708c-6.07-3.898-13.295-5.2-20.345-3.665-7.049 1.535-13.079 5.724-16.978 11.794-8.048 12.531-4.401 29.274 8.129 37.323l1.595 1.024c-3.474 2.07-6.533 4.954-8.863 8.581-3.899 6.07-5.201 13.295-3.665 20.345 1.536 7.049 5.724 13.078 11.82 16.994l61.769 39.318c-7.617 1.315-14.545 5.726-18.917 12.533-4.419 6.88-5.632 15.326-3.33 23.172 2.292 7.81 7.836 14.237 15.222 17.65l17.242 8.474-28.025 28.024c-49.417 49.417-129.826 49.418-179.245 0-45.57-45.57-49.708-117.99-9.624-168.454l40.577-51.085-11.746-9.329-40.577 51.085c-44.827 56.436-40.2 137.427 10.764 188.39 27.633 27.633 63.931 41.45 100.229 41.45s72.596-13.816 100.229-41.45l31.641-31.641 69.477 34.145c14.403 7.078 29.967 10.597 45.505 10.597 17.849 0 35.664-4.644 51.638-13.87l-7.502-12.989c-25.54 14.751-56.577 15.798-83.025 2.801l-101.028-49.651-.189-.09c-3.479-1.591-6.092-4.609-7.17-8.28-1.077-3.671-.509-7.623 1.558-10.842 3.071-4.781 8.835-7.053 14.345-5.656l64.877 16.48 3.627.905 2.913-2.324c.292-.232 29.55-23.143 65.088-14.178l3.669-14.544c-35.997-9.08-65.559 8.222-75.021 14.734l-33.349-8.472-93.54-59.542c-2.699-1.733-4.562-4.415-5.245-7.549s-.104-6.347 1.63-9.046c3.578-5.572 11.022-7.194 16.595-3.615l98.725 63.409 8.106-12.621-98.725-63.409-21.949-14.097c-5.572-3.579-7.193-11.023-3.615-16.596 1.733-2.699 4.415-4.562 7.549-5.244 3.135-.683 6.347-.104 9.046 1.629l32.927 21.149c.014.009.027.018.041.026l87.705 56.331 8.106-12.621-87.704-56.328c-5.572-3.579-7.193-11.023-3.615-16.595s11.023-7.194 16.595-3.615l17.734 11.39 70.698 45.408 8.106-12.621-69.76-44.805c-3.163-3.989-3.479-9.602-.691-13.942 1.733-2.699 4.415-4.562 7.549-5.244 3.134-.684 6.347-.104 9.046 1.629l27.222 17.484 16.407 10.985 88.254 56.686c19.812 12.724 33.482 32.402 38.493 55.409s.764 46.587-11.961 66.399c-5.098 7.938-11.372 14.952-18.646 20.85l9.446 11.651c8.517-6.905 15.858-15.112 21.82-24.395 14.892-23.184 19.862-50.778 13.998-77.699zm-214.248-141.862c-2.173 3.382-3.508 7.11-4.03 10.911l-1.331-.855c-3.235-2.078-6.751-3.37-10.325-3.937l87.95-87.95c3.755-3.755 8.748-5.823 14.059-5.823s10.303 2.068 14.059 5.823c7.752 7.752 7.752 20.366 0 28.118l-38.886 38.886-13.533 13.533-10.641-6.835c-12.532-8.05-29.274-4.402-37.322 8.129zm64.724 9.471-3.845-2.47 11.223-11.223c7.752-7.752 20.366-7.752 28.118 0 3.755 3.755 5.823 8.748 5.823 14.059s-2.068 10.304-5.823 14.059l-5.371 5.371-13.718-8.811z" fill="#65bec2" data-original="#000000" style=""/></g></g></g></svg>
