<svg width="272" height="576" viewBox="0 0 272 576" fill="none" xmlns="http://www.w3.org/2000/svg">
<path d="M61 130V122M61 122V114M61 122H69M61 122H53" stroke="black" stroke-opacity="0.07" stroke-width="2" stroke-linecap="round"/>
<path d="M92 130V122M92 122V114M92 122H100M92 122H84" stroke="black" stroke-opacity="0.07" stroke-width="2" stroke-linecap="round"/>
<path d="M92 100V92M92 92V84M92 92H100M92 92H84" stroke="black" stroke-opacity="0.07" stroke-width="2" stroke-linecap="round"/>
<path d="M123 130V122M123 122V114M123 122H131M123 122H115" stroke="black" stroke-opacity="0.07" stroke-width="2" stroke-linecap="round"/>
<path d="M123 100V92M123 92V84M123 92H131M123 92H115" stroke="black" stroke-opacity="0.07" stroke-width="2" stroke-linecap="round"/>
<path d="M123 65V57M123 57V49M123 57H131M123 57H115" stroke="black" stroke-opacity="0.07" stroke-width="2" stroke-linecap="round"/>
<path d="M154 130V122M154 122V114M154 122H162M154 122H146" stroke="black" stroke-opacity="0.07" stroke-width="2" stroke-linecap="round"/>
<path d="M154 100V92M154 92V84M154 92H162M154 92H146" stroke="black" stroke-opacity="0.07" stroke-width="2" stroke-linecap="round"/>
<path d="M154 65V57M154 57V49M154 57H162M154 57H146" stroke="black" stroke-opacity="0.07" stroke-width="2" stroke-linecap="round"/>
<path d="M185 130V122M185 122V114M185 122H193M185 122H177" stroke="black" stroke-opacity="0.07" stroke-width="2" stroke-linecap="round"/>
<path d="M185 100V92M185 92V84M185 92H193M185 92H177" stroke="black" stroke-opacity="0.07" stroke-width="2" stroke-linecap="round"/>
<path d="M185 65V57M185 57V49M185 57H193M185 57H177" stroke="black" stroke-opacity="0.07" stroke-width="2" stroke-linecap="round"/>
<path d="M185 34V26M185 26V18M185 26H193M185 26H177" stroke="black" stroke-opacity="0.07" stroke-width="2" stroke-linecap="round"/>
<path d="M216 130V122M216 122V114M216 122H224M216 122H208" stroke="black" stroke-opacity="0.07" stroke-width="2" stroke-linecap="round"/>
<path d="M216 100V92M216 92V84M216 92H224M216 92H208" stroke="black" stroke-opacity="0.07" stroke-width="2" stroke-linecap="round"/>
<path d="M216 65V57M216 57V49M216 57H224M216 57H208" stroke="black" stroke-opacity="0.07" stroke-width="2" stroke-linecap="round"/>
<path d="M216 34V26M216 26V18M216 26H224M216 26H208" stroke="black" stroke-opacity="0.07" stroke-width="2" stroke-linecap="round"/>
<path d="M247 130V122M247 122V114M247 122H255M247 122H239" stroke="black" stroke-opacity="0.07" stroke-width="2" stroke-linecap="round"/>
<path d="M247 100V92M247 92V84M247 92H255M247 92H239" stroke="black" stroke-opacity="0.07" stroke-width="2" stroke-linecap="round"/>
<path d="M247 65V57M247 57V49M247 57H255M247 57H239" stroke="black" stroke-opacity="0.07" stroke-width="2" stroke-linecap="round"/>
<path d="M247 34V26M247 26V18M247 26H255M247 26H239" stroke="black" stroke-opacity="0.07" stroke-width="2" stroke-linecap="round"/>
<path d="M61 161V153M61 153V145M61 153H69M61 153H53" stroke="black" stroke-opacity="0.07" stroke-width="2" stroke-linecap="round"/>
<path d="M92 161V153M92 153V145M92 153H100M92 153H84" stroke="black" stroke-opacity="0.07" stroke-width="2" stroke-linecap="round"/>
<path d="M123 161V153M123 153V145M123 153H131M123 153H115" stroke="black" stroke-opacity="0.07" stroke-width="2" stroke-linecap="round"/>
<path d="M154 161V153M154 153V145M154 153H162M154 153H146" stroke="black" stroke-opacity="0.07" stroke-width="2" stroke-linecap="round"/>
<path d="M185 161V153M185 153V145M185 153H193M185 153H177" stroke="black" stroke-opacity="0.07" stroke-width="2" stroke-linecap="round"/>
<path d="M216 161V153M216 153V145M216 153H224M216 153H208" stroke="black" stroke-opacity="0.07" stroke-width="2" stroke-linecap="round"/>
<path d="M247 161V153M247 153V145M247 153H255M247 153H239" stroke="black" stroke-opacity="0.07" stroke-width="2" stroke-linecap="round"/>
<path d="M30 192V184M30 184V176M30 184H38M30 184H22" stroke="black" stroke-opacity="0.07" stroke-width="2" stroke-linecap="round"/>
<path d="M61 192V184M61 184V176M61 184H69M61 184H53" stroke="black" stroke-opacity="0.07" stroke-width="2" stroke-linecap="round"/>
<path d="M92 192V184M92 184V176M92 184H100M92 184H84" stroke="black" stroke-opacity="0.07" stroke-width="2" stroke-linecap="round"/>
<path d="M123 192V184M123 184V176M123 184H131M123 184H115" stroke="black" stroke-opacity="0.07" stroke-width="2" stroke-linecap="round"/>
<path d="M154 192V184M154 184V176M154 184H162M154 184H146" stroke="black" stroke-opacity="0.07" stroke-width="2" stroke-linecap="round"/>
<path d="M185 192V184M185 184V176M185 184H193M185 184H177" stroke="black" stroke-opacity="0.07" stroke-width="2" stroke-linecap="round"/>
<path d="M216 192V184M216 184V176M216 184H224M216 184H208" stroke="black" stroke-opacity="0.07" stroke-width="2" stroke-linecap="round"/>
<path d="M247 192V184M247 184V176M247 184H255M247 184H239" stroke="black" stroke-opacity="0.07" stroke-width="2" stroke-linecap="round"/>
<path d="M30 223V215M30 215V207M30 215H38M30 215H22" stroke="black" stroke-opacity="0.07" stroke-width="2" stroke-linecap="round"/>
<path d="M61 223V215M61 215V207M61 215H69M61 215H53" stroke="black" stroke-opacity="0.07" stroke-width="2" stroke-linecap="round"/>
<path d="M92 223V215M92 215V207M92 215H100M92 215H84" stroke="black" stroke-opacity="0.07" stroke-width="2" stroke-linecap="round"/>
<path d="M123 223V215M123 215V207M123 215H131M123 215H115" stroke="black" stroke-opacity="0.07" stroke-width="2" stroke-linecap="round"/>
<path d="M154 223V215M154 215V207M154 215H162M154 215H146" stroke="black" stroke-opacity="0.07" stroke-width="2" stroke-linecap="round"/>
<path d="M185 223V215M185 215V207M185 215H193M185 215H177" stroke="black" stroke-opacity="0.07" stroke-width="2" stroke-linecap="round"/>
<path d="M216 223V215M216 215V207M216 215H224M216 215H208" stroke="black" stroke-opacity="0.07" stroke-width="2" stroke-linecap="round"/>
<path d="M247 223V215M247 215V207M247 215H255M247 215H239" stroke="black" stroke-opacity="0.07" stroke-width="2" stroke-linecap="round"/>
<path d="M30 254V246M30 246V238M30 246H38M30 246H22" stroke="black" stroke-opacity="0.07" stroke-width="2" stroke-linecap="round"/>
<path d="M61 254V246M61 246V238M61 246H69M61 246H53" stroke="black" stroke-opacity="0.07" stroke-width="2" stroke-linecap="round"/>
<path d="M92 254V246M92 246V238M92 246H100M92 246H84" stroke="black" stroke-opacity="0.07" stroke-width="2" stroke-linecap="round"/>
<path d="M123 254V246M123 246V238M123 246H131M123 246H115" stroke="black" stroke-opacity="0.07" stroke-width="2" stroke-linecap="round"/>
<path d="M154 254V246M154 246V238M154 246H162M154 246H146" stroke="black" stroke-opacity="0.07" stroke-width="2" stroke-linecap="round"/>
<path d="M185 254V246M185 246V238M185 246H193M185 246H177" stroke="black" stroke-opacity="0.07" stroke-width="2" stroke-linecap="round"/>
<path d="M216 254V246M216 246V238M216 246H224M216 246H208" stroke="black" stroke-opacity="0.07" stroke-width="2" stroke-linecap="round"/>
<path d="M247 254V246M247 246V238M247 246H255M247 246H239" stroke="black" stroke-opacity="0.07" stroke-width="2" stroke-linecap="round"/>
<path d="M30 285V277M30 277V269M30 277H38M30 277H22" stroke="black" stroke-opacity="0.07" stroke-width="2" stroke-linecap="round"/>
<path d="M61 285V277M61 277V269M61 277H69M61 277H53" stroke="black" stroke-opacity="0.07" stroke-width="2" stroke-linecap="round"/>
<path d="M92 285V277M92 277V269M92 277H100M92 277H84" stroke="black" stroke-opacity="0.07" stroke-width="2" stroke-linecap="round"/>
<path d="M123 285V277M123 277V269M123 277H131M123 277H115" stroke="black" stroke-opacity="0.07" stroke-width="2" stroke-linecap="round"/>
<path d="M154 285V277M154 277V269M154 277H162M154 277H146" stroke="black" stroke-opacity="0.07" stroke-width="2" stroke-linecap="round"/>
<path d="M185 285V277M185 277V269M185 277H193M185 277H177" stroke="black" stroke-opacity="0.07" stroke-width="2" stroke-linecap="round"/>
<path d="M216 285V277M216 277V269M216 277H224M216 277H208" stroke="black" stroke-opacity="0.07" stroke-width="2" stroke-linecap="round"/>
<path d="M247 285V277M247 277V269M247 277H255M247 277H239" stroke="black" stroke-opacity="0.07" stroke-width="2" stroke-linecap="round"/>
<path d="M30 316V308M30 308V300M30 308H38M30 308H22" stroke="black" stroke-opacity="0.07" stroke-width="2" stroke-linecap="round"/>
<path d="M61 316V308M61 308V300M61 308H69M61 308H53" stroke="black" stroke-opacity="0.07" stroke-width="2" stroke-linecap="round"/>
<path d="M92 316V308M92 308V300M92 308H100M92 308H84" stroke="black" stroke-opacity="0.07" stroke-width="2" stroke-linecap="round"/>
<path d="M123 316V308M123 308V300M123 308H131M123 308H115" stroke="black" stroke-opacity="0.07" stroke-width="2" stroke-linecap="round"/>
<path d="M154 316V308M154 308V300M154 308H162M154 308H146" stroke="black" stroke-opacity="0.07" stroke-width="2" stroke-linecap="round"/>
<path d="M185 316V308M185 308V300M185 308H193M185 308H177" stroke="black" stroke-opacity="0.07" stroke-width="2" stroke-linecap="round"/>
<path d="M216 316V308M216 308V300M216 308H224M216 308H208" stroke="black" stroke-opacity="0.07" stroke-width="2" stroke-linecap="round"/>
<path d="M247 316V308M247 308V300M247 308H255M247 308H239" stroke="black" stroke-opacity="0.07" stroke-width="2" stroke-linecap="round"/>
<path d="M30 347V339M30 339V331M30 339H38M30 339H22" stroke="black" stroke-opacity="0.07" stroke-width="2" stroke-linecap="round"/>
<path d="M61 347V339M61 339V331M61 339H69M61 339H53" stroke="black" stroke-opacity="0.07" stroke-width="2" stroke-linecap="round"/>
<path d="M92 347V339M92 339V331M92 339H100M92 339H84" stroke="black" stroke-opacity="0.07" stroke-width="2" stroke-linecap="round"/>
<path d="M123 347V339M123 339V331M123 339H131M123 339H115" stroke="black" stroke-opacity="0.07" stroke-width="2" stroke-linecap="round"/>
<path d="M154 347V339M154 339V331M154 339H162M154 339H146" stroke="black" stroke-opacity="0.07" stroke-width="2" stroke-linecap="round"/>
<path d="M185 347V339M185 339V331M185 339H193M185 339H177" stroke="black" stroke-opacity="0.07" stroke-width="2" stroke-linecap="round"/>
<path d="M216 347V339M216 339V331M216 339H224M216 339H208" stroke="black" stroke-opacity="0.07" stroke-width="2" stroke-linecap="round"/>
<path d="M247 347V339M247 339V331M247 339H255M247 339H239" stroke="black" stroke-opacity="0.07" stroke-width="2" stroke-linecap="round"/>
<path d="M30 378V370M30 370V362M30 370H38M30 370H22" stroke="black" stroke-opacity="0.07" stroke-width="2" stroke-linecap="round"/>
<path d="M61 378V370M61 370V362M61 370H69M61 370H53" stroke="black" stroke-opacity="0.07" stroke-width="2" stroke-linecap="round"/>
<path d="M92 378V370M92 370V362M92 370H100M92 370H84" stroke="black" stroke-opacity="0.07" stroke-width="2" stroke-linecap="round"/>
<path d="M123 378V370M123 370V362M123 370H131M123 370H115" stroke="black" stroke-opacity="0.07" stroke-width="2" stroke-linecap="round"/>
<path d="M154 378V370M154 370V362M154 370H162M154 370H146" stroke="black" stroke-opacity="0.07" stroke-width="2" stroke-linecap="round"/>
<path d="M185 378V370M185 370V362M185 370H193M185 370H177" stroke="black" stroke-opacity="0.07" stroke-width="2" stroke-linecap="round"/>
<path d="M216 378V370M216 370V362M216 370H224M216 370H208" stroke="black" stroke-opacity="0.07" stroke-width="2" stroke-linecap="round"/>
<path d="M247 378V370M247 370V362M247 370H255M247 370H239" stroke="black" stroke-opacity="0.07" stroke-width="2" stroke-linecap="round"/>
<path d="M30 409V401M30 401V393M30 401H38M30 401H22" stroke="black" stroke-opacity="0.07" stroke-width="2" stroke-linecap="round"/>
<path d="M61 409V401M61 401V393M61 401H69M61 401H53" stroke="black" stroke-opacity="0.07" stroke-width="2" stroke-linecap="round"/>
<path d="M92 409V401M92 401V393M92 401H100M92 401H84" stroke="black" stroke-opacity="0.07" stroke-width="2" stroke-linecap="round"/>
<path d="M123 409V401M123 401V393M123 401H131M123 401H115" stroke="black" stroke-opacity="0.07" stroke-width="2" stroke-linecap="round"/>
<path d="M154 409V401M154 401V393M154 401H162M154 401H146" stroke="black" stroke-opacity="0.07" stroke-width="2" stroke-linecap="round"/>
<path d="M185 409V401M185 401V393M185 401H193M185 401H177" stroke="black" stroke-opacity="0.07" stroke-width="2" stroke-linecap="round"/>
<path d="M216 409V401M216 401V393M216 401H224M216 401H208" stroke="black" stroke-opacity="0.07" stroke-width="2" stroke-linecap="round"/>
<path d="M247 409V401M247 401V393M247 401H255M247 401H239" stroke="black" stroke-opacity="0.07" stroke-width="2" stroke-linecap="round"/>
<path d="M30 440V432M30 432V424M30 432H38M30 432H22" stroke="black" stroke-opacity="0.07" stroke-width="2" stroke-linecap="round"/>
<path d="M61 440V432M61 432V424M61 432H69M61 432H53" stroke="black" stroke-opacity="0.07" stroke-width="2" stroke-linecap="round"/>
<path d="M92 440V432M92 432V424M92 432H100M92 432H84" stroke="black" stroke-opacity="0.07" stroke-width="2" stroke-linecap="round"/>
<path d="M123 440V432M123 432V424M123 432H131M123 432H115" stroke="black" stroke-opacity="0.07" stroke-width="2" stroke-linecap="round"/>
<path d="M154 440V432M154 432V424M154 432H162M154 432H146" stroke="black" stroke-opacity="0.07" stroke-width="2" stroke-linecap="round"/>
<path d="M185 440V432M185 432V424M185 432H193M185 432H177" stroke="black" stroke-opacity="0.07" stroke-width="2" stroke-linecap="round"/>
<path d="M216 440V432M216 432V424M216 432H224M216 432H208" stroke="black" stroke-opacity="0.07" stroke-width="2" stroke-linecap="round"/>
<path d="M30 471V463M30 463V455M30 463H38M30 463H22" stroke="black" stroke-opacity="0.07" stroke-width="2" stroke-linecap="round"/>
<path d="M61 471V463M61 463V455M61 463H69M61 463H53" stroke="black" stroke-opacity="0.07" stroke-width="2" stroke-linecap="round"/>
<path d="M92 471V463M92 463V455M92 463H100M92 463H84" stroke="black" stroke-opacity="0.07" stroke-width="2" stroke-linecap="round"/>
<path d="M123 471V463M123 463V455M123 463H131M123 463H115" stroke="black" stroke-opacity="0.07" stroke-width="2" stroke-linecap="round"/>
<path d="M154 471V463M154 463V455M154 463H162M154 463H146" stroke="black" stroke-opacity="0.07" stroke-width="2" stroke-linecap="round"/>
<path d="M185 471V463M185 463V455M185 463H193M185 463H177" stroke="black" stroke-opacity="0.07" stroke-width="2" stroke-linecap="round"/>
<path d="M216 471V463M216 463V455M216 463H224M216 463H208" stroke="black" stroke-opacity="0.07" stroke-width="2" stroke-linecap="round"/>
<path d="M30 502V494M30 494V486M30 494H38M30 494H22" stroke="black" stroke-opacity="0.07" stroke-width="2" stroke-linecap="round"/>
<path d="M61 502V494M61 494V486M61 494H69M61 494H53" stroke="black" stroke-opacity="0.07" stroke-width="2" stroke-linecap="round"/>
<path d="M92 502V494M92 494V486M92 494H100M92 494H84" stroke="black" stroke-opacity="0.07" stroke-width="2" stroke-linecap="round"/>
<path d="M123 502V494M123 494V486M123 494H131M123 494H115" stroke="black" stroke-opacity="0.07" stroke-width="2" stroke-linecap="round"/>
<path d="M154 502V494M154 494V486M154 494H162M154 494H146" stroke="black" stroke-opacity="0.07" stroke-width="2" stroke-linecap="round"/>
<path d="M185 502V494M185 494V486M185 494H193M185 494H177" stroke="black" stroke-opacity="0.07" stroke-width="2" stroke-linecap="round"/>
<path d="M30 533V525M30 525V517M30 525H38M30 525H22" stroke="black" stroke-opacity="0.07" stroke-width="2" stroke-linecap="round"/>
<path d="M61 533V525M61 525V517M61 525H69M61 525H53" stroke="black" stroke-opacity="0.07" stroke-width="2" stroke-linecap="round"/>
<path d="M92 533V525M92 525V517M92 525H100M92 525H84" stroke="black" stroke-opacity="0.07" stroke-width="2" stroke-linecap="round"/>
<path d="M123 533V525M123 525V517M123 525H131M123 525H115" stroke="black" stroke-opacity="0.07" stroke-width="2" stroke-linecap="round"/>
<path d="M154 533V525M154 525V517M154 525H162M154 525H146" stroke="black" stroke-opacity="0.07" stroke-width="2" stroke-linecap="round"/>
<path d="M185 533V525M185 525V517M185 525H193M185 525H177" stroke="black" stroke-opacity="0.07" stroke-width="2" stroke-linecap="round"/>
<path d="M30 564V556M30 556V548M30 556H38M30 556H22" stroke="black" stroke-opacity="0.07" stroke-width="2" stroke-linecap="round"/>
<path d="M61 564V556M61 556V548M61 556H69M61 556H53" stroke="black" stroke-opacity="0.07" stroke-width="2" stroke-linecap="round"/>
<path d="M92 564V556M92 556V548M92 556H100M92 556H84" stroke="black" stroke-opacity="0.07" stroke-width="2" stroke-linecap="round"/>
</svg>
