<?xml version="1.0"?>
<svg xmlns="http://www.w3.org/2000/svg" xmlns:xlink="http://www.w3.org/1999/xlink" xmlns:svgjs="http://svgjs.com/svgjs" version="1.1" width="512" height="512" x="0" y="0" viewBox="0 0 512 512" style="enable-background:new 0 0 512 512" xml:space="preserve"><g><g xmlns="http://www.w3.org/2000/svg"><path d="m468.005 302.797c-3.376-2.413-8.067-1.631-10.479 1.745-2.412 3.375-1.631 8.067 1.744 10.479 23.61 16.871 37.706 44.242 37.706 73.218 0 21.618-7.67 41.477-20.428 57.004-10.52-20.212-25.215-33.205-36.731-40.954 6.246-7.558 9.79-17.149 9.79-27.127 0-23.465-19.09-42.556-42.555-42.556s-42.556 19.09-42.556 42.556c0 9.978 3.545 19.569 9.79 27.127-11.515 7.749-26.21 20.743-36.73 40.954-12.758-15.527-20.428-35.386-20.428-57.003 0-49.584 40.34-89.924 89.924-89.924 9.535 0 18.92 1.484 27.895 4.409 3.941 1.283 8.184-.87 9.47-4.814 1.286-3.945-.87-8.184-4.814-9.47-10.481-3.416-21.433-5.149-32.551-5.149-34.222 0-64.668 16.467-83.837 41.891l-59.603-38.472v-58.274c54.375-3.865 97.436-49.334 97.436-104.675 0-57.868-47.079-104.948-104.947-104.948-21.457 0-42.091 6.434-59.672 18.605-3.411 2.361-4.262 7.04-1.9 10.452 2.361 3.409 7.04 4.262 10.452 1.899 15.057-10.423 32.734-15.933 51.12-15.933 49.584 0 89.924 40.34 89.924 89.924 0 21.618-7.669 41.477-20.428 57.003-10.52-20.211-25.215-33.205-36.731-40.954 6.246-7.558 9.79-17.149 9.79-27.128 0-23.464-19.09-42.555-42.555-42.555s-42.555 19.09-42.555 42.555c0 9.979 3.544 19.571 9.79 27.128-11.516 7.749-26.21 20.743-36.731 40.954-12.759-15.526-20.428-35.385-20.428-57.003 0-20.035 6.444-38.992 18.636-54.822 2.531-3.286 1.919-8.003-1.367-10.534-3.287-2.533-8.004-1.92-10.535 1.367-14.234 18.48-21.757 40.607-21.757 63.988 0 55.342 43.06 100.811 97.435 104.675v58.274l-59.841 38.626c-19.172-25.397-49.6-41.843-83.8-41.843-57.869.001-104.948 47.081-104.948 104.949 0 24.036 8.333 47.526 23.465 66.145 14.912 18.35 35.77 31.251 58.73 36.328 4.05.893 8.06-1.663 8.956-5.713.895-4.05-1.662-8.06-5.713-8.956-14.291-3.16-27.622-9.878-38.754-19.343 11.495-25.365 30.752-38.815 41.584-44.706 4.786-2.421 5.248-9.685.805-12.692-7.174-5.174-11.457-13.527-11.457-22.343 0-15.181 12.351-27.532 27.532-27.532s27.532 12.351 27.532 27.532c0 8.816-4.283 17.169-11.456 22.343-4.443 3.007-3.98 10.271.805 12.692 10.798 5.872 29.968 19.254 41.477 44.463-14.118 12.138-31.625 19.633-50.3 21.333-4.132.376-7.176 4.03-6.801 8.161.355 3.9 3.631 6.832 7.472 6.832.228 0 .458-.011.689-.032 25.965-2.361 50.011-14.28 67.71-33.559 17.809-19.401 27.618-44.599 27.618-70.952 0-18.294-4.71-35.507-12.973-50.498l59.18-38.199 58.948 38.05c-8.245 14.979-12.944 32.172-12.944 50.445 0 57.868 47.079 104.948 104.947 104.948s104.948-47.081 104.948-104.949c0-33.816-16.447-65.757-43.995-85.442zm-293.361 142.443c-10.52-20.21-25.214-33.202-36.729-40.951 6.245-7.558 9.79-17.149 9.79-27.127 0-23.465-19.09-42.556-42.555-42.556s-42.555 19.09-42.555 42.556c0 9.978 3.545 19.569 9.79 27.127-11.573 7.788-26.359 20.874-36.89 41.26-.122-.147-.25-.288-.371-.437-12.962-15.949-20.101-36.075-20.101-56.67 0-49.584 40.34-89.924 89.924-89.924s89.924 40.34 89.924 89.924c0 20.816-7.156 40.781-20.227 56.798zm64.577-297.523c4.786-2.422 5.247-9.686.805-12.692-7.174-5.173-11.456-13.526-11.456-22.343 0-15.181 12.351-27.531 27.532-27.531s27.532 12.35 27.532 27.531c0 8.817-4.282 17.17-11.456 22.343-4.443 3.006-3.981 10.27.805 12.692 10.792 5.869 29.947 19.239 41.457 44.418-15.715 13.428-36.094 21.549-58.336 21.549-22.243 0-42.621-8.121-58.337-21.549 11.508-25.179 30.663-38.548 41.454-44.418zm167.832 330.446c-22.243 0-42.622-8.122-58.337-21.55 11.51-25.18 30.665-38.549 41.456-44.417 4.786-2.421 5.248-9.685.805-12.692-7.174-5.174-11.457-13.527-11.457-22.343 0-15.181 12.351-27.532 27.532-27.532s27.532 12.351 27.532 27.532c0 8.816-4.283 17.169-11.457 22.343-4.443 3.007-3.98 10.271.805 12.692 10.791 5.869 29.946 19.237 41.456 44.418-15.714 13.428-36.093 21.549-58.335 21.549z" fill="#ffffff" data-original="#000000" style=""/></g></g></svg>
